<svg xmlns="http://www.w3.org/2000/svg" version="1.1" viewBox="-2222.177 -995.328 6602.486 2176.641"><desc>Created with Snap</desc><g><g transform="matrix(20.562,0,0,20.562,2253.5916,-945.4104)"><g><path fill="#195190" d="M74.265,60.41c0.964,2.929,1.401,5.966,1.261,9.015c2.584-0.989,5.013-2.49,7.095-4.572c0.244-0.244,0.41-0.527,0.637-0.78 c0.018-0.341,0.105-0.659,0.105-1.004c0-2.924-0.646-5.691-1.764-8.203C79.522,57.139,77.045,59.022,74.265,60.41z"/><path fill="#195190" d="M54.863,81.605c2.509,1.112,5.276,1.759,8.2,1.759c0.349,0,0.664-0.085,1.004-0.103c0.253-0.227,0.541-0.393,0.781-0.637 c2.08-2.085,3.585-4.516,4.572-7.104c-3.049,0.14-6.086-0.292-9.01-1.257C59.022,77.049,57.137,79.528,54.863,81.605z"/><path fill="#195190" d="M40.588,74.265c-2.925,0.965-5.965,1.396-9.013,1.257c0.988,2.588,2.49,5.023,4.573,7.104 c0.242,0.244,0.528,0.41,0.779,0.637c0.339,0.018,0.661,0.103,1.003,0.103c2.926,0,5.691-0.646,8.202-1.759 C43.861,79.528,41.976,77.049,40.588,74.265z"/><path fill="#195190" d="M26.731,60.41c-2.781-1.388-5.26-3.271-7.337-5.545c-1.112,2.512-1.758,5.279-1.758,8.203c0,0.345,0.085,0.663,0.1,1.004 c0.229,0.253,0.395,0.536,0.639,0.78c2.082,2.082,4.515,3.583,7.098,4.572C25.333,66.376,25.767,63.339,26.731,60.41z"/><path fill="#195190" d="M26.731,40.592c-0.964-2.929-1.398-5.966-1.259-9.016c-2.583,0.989-5.014,2.491-7.098,4.572 c-0.244,0.245-0.41,0.528-0.639,0.781c-0.015,0.341-0.1,0.659-0.1,1.004c0,2.924,0.646,5.69,1.76,8.205 C21.471,43.863,23.95,41.979,26.731,40.592z"/><path fill="#195190" d="M46.132,19.397c-2.511-1.114-5.275-1.76-8.202-1.76c-0.342,0-0.664,0.084-1.003,0.102 c-0.251,0.228-0.537,0.393-0.779,0.638c-2.083,2.08-3.585,4.515-4.573,7.103c3.048-0.14,6.088,0.293,9.013,1.257 C41.976,23.952,43.861,21.475,46.132,19.397z"/><path fill="#195190" d="M60.41,26.736c2.924-0.964,5.961-1.396,9.01-1.257c-0.99-2.588-2.492-5.017-4.572-7.103 c-0.24-0.245-0.528-0.41-0.781-0.638c-0.34-0.018-0.659-0.102-1.004-0.102c-2.924,0-5.691,0.646-8.2,1.76 C57.137,21.475,59.022,23.952,60.41,26.736z"/><path fill="#195190" d="M82.621,36.148c-2.082-2.081-4.511-3.583-7.095-4.572c0.14,3.05-0.297,6.087-1.261,9.016 c2.78,1.388,5.257,3.271,7.334,5.547c1.117-2.515,1.764-5.281,1.764-8.205c0-0.345-0.088-0.663-0.105-1.004 C83.031,36.677,82.865,36.394,82.621,36.148z"/><path fill="#195190" d="M58.228,63.068c0-0.166-0.048-0.319-0.052-0.484c-1.061-0.21-2.09-0.498-3.099-0.834c-0.462,0.921-0.89,1.851-1.469,2.719 c0.113,0.122,0.19,0.267,0.309,0.384c1.143,1.14,2.404,2.069,3.718,2.881C57.993,66.228,58.228,64.683,58.228,63.068z"/><path fill="#195190" d="M43.362,67.733c1.313-0.812,2.574-1.741,3.715-2.881c0.12-0.117,0.199-0.262,0.312-0.384 c-0.581-0.868-1.008-1.798-1.471-2.719c-1.008,0.336-2.038,0.624-3.1,0.834c-0.002,0.165-0.048,0.318-0.048,0.484 C42.771,64.683,43.006,66.228,43.362,67.733z"/><path fill="#195190" d="M36.148,53.922c-1.139,1.14-2.068,2.4-2.88,3.717c1.503,0.355,3.051,0.59,4.663,0.59c0.166,0,0.318-0.044,0.484-0.048 c0.209-1.06,0.495-2.094,0.833-3.102c-0.918-0.463-1.848-0.886-2.716-1.471C36.411,53.726,36.269,53.805,36.148,53.922z"/><path fill="#195190" d="M38.415,42.821c-0.166-0.006-0.319-0.05-0.484-0.05c-1.612,0-3.159,0.236-4.663,0.591c0.812,1.318,1.739,2.578,2.88,3.717 c0.12,0.118,0.262,0.196,0.384,0.314c0.868-0.583,1.797-1.008,2.716-1.471C38.91,44.916,38.625,43.881,38.415,42.821z"/><path fill="#195190" d="M42.771,37.934c0,0.166,0.046,0.318,0.048,0.484c1.062,0.21,2.092,0.498,3.1,0.834c0.462-0.921,0.89-1.851,1.471-2.719 c-0.113-0.123-0.192-0.267-0.312-0.385c-1.141-1.139-2.402-2.066-3.715-2.879C43.006,34.774,42.771,36.319,42.771,37.934z"/><path fill="#195190" d="M57.635,33.27c-1.314,0.812-2.575,1.74-3.718,2.879c-0.118,0.118-0.195,0.262-0.309,0.385 c0.579,0.868,1.007,1.798,1.469,2.719c1.008-0.336,2.038-0.624,3.099-0.834c0.004-0.166,0.052-0.318,0.052-0.484 C58.228,36.319,57.993,34.774,57.635,33.27z"/><path fill="#195190" d="M63.063,42.771c-0.166,0-0.314,0.044-0.48,0.05c-0.209,1.06-0.498,2.095-0.838,3.102c0.921,0.463,1.851,0.888,2.719,1.471 c0.122-0.118,0.266-0.196,0.384-0.314c1.139-1.139,2.067-2.398,2.883-3.717C66.226,43.008,64.678,42.771,63.063,42.771z"/><path fill="#195190" d="M48.074,49.493c-0.035,0.676-0.035,1.339,0,2.012c0.452,0.502,0.921,0.969,1.42,1.423c0.671,0.034,1.335,0.034,2.007,0 c0.5-0.454,0.972-0.926,1.423-1.423c0.035-0.673,0.033-1.336,0-2.008c-0.451-0.502-0.921-0.969-1.42-1.423 c-0.673-0.035-1.34-0.035-2.012,0C48.995,48.528,48.524,48.995,48.074,49.493z"/><path fill="#195190" d="M64.464,53.608c-0.868,0.585-1.798,1.008-2.719,1.471c0.34,1.008,0.628,2.042,0.838,3.102 c0.166,0.004,0.314,0.048,0.48,0.048c1.615,0,3.163-0.234,4.668-0.59c-0.816-1.316-1.745-2.577-2.883-3.717 C64.73,53.805,64.586,53.726,64.464,53.608z"/><path fill="#195190" d="M72.271,55.926c2.583-1.327,4.827-3.173,6.615-5.425c-1.788-2.252-4.031-4.098-6.615-5.425 c-1.091,1.929-2.357,3.784-3.998,5.425C69.914,52.142,71.179,53.996,72.271,55.926z"/><path fill="#195190" d="M62.138,31.245c0.585,2.133,0.925,4.367,0.925,6.688c2.322,0,4.555,0.341,6.689,0.93c0.868-2.745,1.143-5.603,0.82-8.436 C67.74,30.104,64.879,30.375,62.138,31.245z"/><path fill="#195190" d="M50.498,22.11c-2.253,1.794-4.099,4.033-5.424,6.616c1.927,1.096,3.782,2.361,5.424,4.002 c1.644-1.641,3.498-2.906,5.426-4.002C54.597,26.144,52.752,23.904,50.498,22.11z"/><path fill="#195190" d="M37.931,37.934c0-2.321,0.34-4.556,0.927-6.688c-2.74-0.87-5.601-1.141-8.432-0.817c-0.323,2.833-0.05,5.69,0.817,8.436 C33.377,38.274,35.612,37.934,37.931,37.934z"/><path fill="#195190" d="M22.108,50.501c1.794,2.252,4.034,4.098,6.618,5.425c1.091-1.93,2.356-3.784,3.999-5.425 c-1.643-1.641-2.908-3.496-4.001-5.425C26.143,46.403,23.902,48.249,22.108,50.501z"/><path fill="#195190" d="M38.858,69.757c-0.587-2.133-0.927-4.367-0.927-6.688c-2.319,0-4.553-0.341-6.688-0.93 c-0.868,2.745-1.14,5.604-0.817,8.436C33.257,70.896,36.118,70.627,38.858,69.757z"/><path fill="#195190" d="M50.498,78.891c2.255-1.793,4.1-4.032,5.426-6.616c-1.929-1.095-3.782-2.36-5.426-4c-1.642,1.64-3.497,2.905-5.424,4 C46.401,74.858,48.245,77.098,50.498,78.891z"/><path fill="#195190" d="M63.063,63.068c0,2.321-0.34,4.556-0.925,6.688c2.741,0.87,5.602,1.139,8.435,0.817c0.323-2.832,0.048-5.695-0.82-8.436 C67.618,62.728,65.385,63.068,63.063,63.068z"/><path fill="#195190" d="M87.425,44.026c-0.571,2.304-1.457,4.476-2.614,6.475c1.157,1.999,2.043,4.177,2.614,6.475 C88.844,52.771,88.844,48.231,87.425,44.026z"/><path fill="#195190" d="M81.233,29.05c-1.981-4.041-5.244-7.301-9.286-9.282c1.249,2.063,2.147,4.268,2.745,6.541 C76.966,26.907,79.165,27.802,81.233,29.05z"/><path fill="#195190" d="M56.971,13.576c-4.204-1.418-8.742-1.418-12.947,0c2.3,0.571,4.473,1.453,6.473,2.614 C52.5,15.029,54.671,14.147,56.971,13.576z"/><path fill="#195190" d="M29.047,19.768c-4.042,1.981-7.301,5.241-9.284,9.282c2.066-1.248,4.268-2.143,6.541-2.741 C26.904,24.035,27.798,21.831,29.047,19.768z"/><path fill="#195190" d="M13.571,56.973c0.574-2.3,1.458-4.473,2.616-6.472c-1.159-1.999-2.04-4.171-2.616-6.472 C12.158,48.231,12.158,52.771,13.571,56.973z"/><path fill="#195190" d="M19.765,71.952c1.981,4.041,5.24,7.297,9.279,9.282c-1.248-2.068-2.141-4.269-2.741-6.542 C24.031,74.095,21.829,73.2,19.765,71.952z"/><path fill="#195190" d="M44.024,87.426c4.205,1.418,8.746,1.418,12.947,0c-2.3-0.572-4.472-1.453-6.474-2.614 C48.498,85.973,46.324,86.854,44.024,87.426z"/><path fill="#195190" d="M71.952,81.234c4.037-1.985,7.3-5.241,9.281-9.282c-2.068,1.248-4.267,2.143-6.541,2.74 C74.095,76.966,73.2,79.166,71.952,81.234z"/></g><desc>Created with Snap</desc></g><g><g><path fill="#195190" d="M246 0L91 573Q84 599 76 611Q69 623 55 627Q42 631 14 631L14 660L239 660L239 631L197 631Q185 631 179 627Q173 624 173 615Q173 612 177 594L303 123L306 123L445 644L500 644L652 122L656 122L773 591Q776 603 776 612Q776 622 771 626Q766 631 753 631L707 631L707 660L903 660L903 631Q873 631 857 625Q842 619 833 604Q824 590 814 560L658 0L599 0L449 510L447 510L307 0L246 0ZM1278 -12Q1128 -12 1046 77Q965 166 965 322Q965 486 1049 579Q1134 672 1286 672Q1327 672 1356 664Q1385 657 1415 645Q1438 635 1449 635Q1467 635 1473 649L1476 660L1503 660L1513 480L1486 480Q1445 638 1293 638Q1210 638 1160 589Q1111 541 1091 471Q1071 401 1071 331Q1071 250 1094 179Q1117 109 1167 65Q1217 22 1293 22Q1354 22 1393 42Q1433 63 1454 92Q1475 122 1492 161L1517 148Q1493 82 1439 35Q1386 -12 1278 -12ZM1613 0L1613 29Q1649 29 1665 33Q1681 38 1685 49Q1690 60 1690 85L1690 574Q1690 600 1685 611Q1680 622 1664 626Q1649 631 1613 631L1613 660L1882 660Q1981 660 2037 619Q2093 578 2093 497Q2093 429 2054 387Q2016 345 1951 330L1951 328Q2002 313 2026 279Q2051 245 2062 175L2068 138Q2078 82 2096 55Q2114 29 2152 29L2152 0L2022 0Q1996 24 1982 92L1958 215Q1948 265 1921 287Q1895 310 1843 310L1782 310L1782 85Q1782 60 1787 48Q1792 37 1809 33Q1826 29 1864 29L1864 0L1613 0ZM1782 346L1845 346Q1921 346 1957 379Q1993 413 1993 485Q1993 557 1956 591Q1919 625 1843 625Q1805 625 1793 616Q1782 608 1782 588L1782 346Z" transform="matrix(1.024,0,0,-1.024,0,0)"/></g></g><g><g><path fill="#195190" d="M415 1437L415 221Q415 111 460 88Q482 78 511 74Q540 70 575 53L575 0L55 0L55 53Q75 66 108 74Q142 83 156 88Q170 94 180 107Q202 134 202 203L202 893L41 893L41 950Q55 965 98 970Q180 981 200 1001Q211 1204 244 1278Q278 1352 317 1386Q356 1421 415 1437ZM660 1320Q639 1376 530 1376Q515 1376 498 1371L498 1450Q520 1452 559 1452Q598 1452 642 1439Q687 1427 720 1404Q789 1353 789 1270Q789 1216 754 1184Q724 1157 691 1157Q658 1157 640 1162Q623 1168 610 1178Q580 1201 580 1241Q580 1299 660 1320ZM498 893L498 981L628 981L628 893L498 893ZM1143 53L1143 -25Q972 -8 862 120Q739 263 739 489Q739 717 862 860Q973 989 1143 1006L1143 928Q1055 911 1014 813Q970 705 970 489Q970 172 1068 88Q1101 61 1143 53ZM1226 -26L1226 52Q1403 82 1403 489Q1403 812 1299 896Q1266 922 1226 929L1226 1007Q1396 994 1510 864Q1636 719 1636 489Q1636 260 1512 117Q1398 -13 1226 -26ZM2107 987L2119 750L2119 197Q2119 107 2163 90Q2177 84 2193 80Q2246 65 2268 53L2268 0L1786 0L1786 53Q1805 65 1826 72Q1847 80 1865 90Q1906 111 1906 158L1906 737Q1906 852 1887 870Q1869 888 1851 896Q1834 904 1815 909Q1796 915 1782 926L1782 987L2107 987ZM2425 718Q2381 718 2356 739Q2331 760 2331 791Q2331 822 2357 852Q2348 858 2334 858Q2266 857 2202 762L2202 916Q2276 1008 2370 1008Q2478 1008 2515 914Q2527 885 2527 836Q2527 787 2498 752Q2469 718 2425 718ZM3445 1427L3445 201Q3445 109 3485 90Q3497 85 3511 80Q3552 67 3570 53L3570 0L3105 0L3105 53Q3127 71 3150 76Q3173 81 3191 90Q3232 112 3232 201L3232 1217Q3232 1317 3193 1333Q3181 1338 3167 1342Q3123 1352 3105 1366L3105 1427L3445 1427ZM3528 538L3528 598L3706 764Q3775 828 3775 858Q3775 888 3695 904Q3673 909 3654 918L3654 981L4098 981L4098 922Q4075 911 4048 899Q4021 888 3987 868Q3907 822 3817 735L3703 625L4003 139Q4029 95 4059 85Q4090 75 4108 70Q4126 66 4145 55L4145 0L3706 0L3706 53Q3755 76 3757 123Q3757 136 3751 147L3528 538ZM4226 987L4566 993L4566 158Q4566 111 4607 90Q4626 80 4648 72Q4670 65 4691 53L4691 0L4226 0L4226 53Q4247 65 4269 72Q4292 80 4311 90Q4353 111 4353 158L4353 827Q4353 880 4313 900Q4295 909 4272 914Q4249 920 4226 932L4226 987ZM4316 1303Q4316 1361 4353 1396Q4390 1432 4433 1432Q4477 1432 4501 1422Q4526 1413 4544 1396Q4582 1360 4582 1303Q4582 1247 4544 1211Q4507 1176 4448 1176Q4390 1176 4353 1211Q4316 1246 4316 1303ZM5411 901Q5328 901 5259 836L5259 945Q5347 1008 5466 1008Q5604 1008 5689 936Q5776 861 5776 725L5776 199Q5776 104 5815 88Q5827 83 5841 80Q5879 70 5900 53L5900 0L5513 0L5513 68Q5513 87 5530 103Q5547 119 5555 130Q5563 142 5563 164L5563 735Q5563 901 5411 901ZM5176 987L5176 203Q5176 109 5216 90Q5228 85 5242 80Q5283 67 5302 53L5302 0L4836 0L4836 53Q4854 67 4881 76Q4909 85 4921 90Q4934 95 4943 108Q4962 134 4962 201L4962 778Q4962 877 4923 893Q4911 898 4897 902Q4853 912 4834 926L4834 987L5176 987ZM6680 0L6680 1262Q6680 1316 6640 1334Q6622 1343 6599 1348Q6576 1354 6553 1366L6553 1427L6893 1427L6893 182Q6893 102 6973 76Q6993 70 7011 59L7011 0L6680 0ZM6485 909Q6271 909 6271 484Q6271 59 6473 59Q6533 59 6597 133L6597 14Q6531 -27 6441 -27Q6351 -27 6278 7Q6205 41 6151 106Q6032 249 6032 481Q6032 713 6149 860Q6267 1008 6446 1008Q6525 1008 6597 970L6597 875Q6549 909 6485 909ZM7696 901Q7613 901 7544 836L7544 945Q7632 1008 7751 1008Q7889 1008 7974 936Q8061 861 8061 725L8061 199Q8061 104 8100 88Q8112 83 8126 80Q8164 70 8185 53L8185 0L7798 0L7798 68Q7798 87 7815 103Q7832 119 7840 130Q7848 142 7848 164L7848 735Q7848 901 7696 901ZM7461 987L7461 203Q7461 109 7501 90Q7513 85 7527 80Q7568 67 7587 53L7587 0L7121 0L7121 53Q7139 67 7166 76Q7194 85 7206 90Q7219 95 7228 108Q7247 134 7247 201L7247 778Q7247 877 7208 893Q7196 898 7182 902Q7138 912 7119 926L7119 987L7461 987ZM8631 596L8958 596Q8958 884 8814 920L8814 1006Q9001 989 9102 849Q9197 718 9197 508L8631 508L8631 596ZM8818 -26L8818 61Q8992 69 9065 225Q9086 270 9101 317L9187 285Q9131 76 8958 4Q8897 -21 8818 -26ZM8547 553Q8547 123 8735 69L8735 -23Q8539 -1 8424 140Q8309 279 8309 489Q8309 710 8424 852Q8540 995 8731 1007L8731 924Q8547 902 8547 553ZM9761 -26L9761 53Q9836 64 9881 108Q9927 153 9927 212Q9927 271 9903 303Q9880 336 9841 359Q9803 383 9754 401Q9705 420 9654 438Q9603 457 9554 480Q9505 503 9466 535Q9381 606 9381 721Q9381 824 9459 904Q9547 996 9689 1007L9689 928Q9631 917 9596 880Q9562 843 9562 793Q9562 743 9586 713Q9610 684 9649 662Q9689 641 9739 623Q9790 606 9843 586Q9896 567 9946 543Q9997 520 10036 485Q10124 407 10124 283Q10124 174 10042 88Q9944 -15 9761 -26ZM9829 772Q9829 847 9884 868Q9853 923 9772 931L9772 1007Q9904 997 9992 934Q10079 871 10079 782Q10079 728 10045 697Q10012 666 9954 666Q9897 666 9863 695Q9829 724 9829 772ZM9621 209Q9621 134 9566 113Q9597 58 9678 50L9678 -26Q9549 -18 9458 47Q9371 110 9371 199Q9371 253 9404 284Q9438 315 9495 315Q9553 315 9587 286Q9621 257 9621 209ZM10661 -26L10661 53Q10736 64 10781 108Q10827 153 10827 212Q10827 271 10803 303Q10780 336 10741 359Q10703 383 10654 401Q10605 420 10554 438Q10503 457 10454 480Q10405 503 10366 535Q10281 606 10281 721Q10281 824 10359 904Q10447 996 10589 1007L10589 928Q10531 917 10496 880Q10462 843 10462 793Q10462 743 10486 713Q10510 684 10549 662Q10589 641 10639 623Q10690 606 10743 586Q10796 567 10846 543Q10897 520 10936 485Q11024 407 11024 283Q11024 174 10942 88Q10844 -15 10661 -26ZM10729 772Q10729 847 10784 868Q10753 923 10672 931L10672 1007Q10804 997 10892 934Q10979 871 10979 782Q10979 728 10945 697Q10912 666 10854 666Q10797 666 10763 695Q10729 724 10729 772ZM10521 209Q10521 134 10466 113Q10497 58 10578 50L10578 -26Q10449 -18 10358 47Q10271 110 10271 199Q10271 253 10304 284Q10338 315 10395 315Q10453 315 10487 286Q10521 257 10521 209Z" transform="matrix(0.75,0,0,0.75,-1930.3517,863.988) matrix(0.5,0,0,-0.5,0,0)"/></g></g></g></svg>